<svg width="36" height="36" viewBox="0 0 36 36" fill="none" xmlns="http://www.w3.org/2000/svg">
<path d="M31.5 19.5C31.5 22.17 30.7082 24.7801 29.2248 27.0002C27.7414 29.2203 25.633 30.9506 23.1662 31.9724C20.6994 32.9942 17.985 33.2615 15.3663 32.7406C12.7475 32.2197 10.3421 30.9339 8.45406 29.0459C6.56606 27.1579 5.28031 24.7525 4.7594 22.1337C4.2385 19.515 4.50585 16.8006 5.52763 14.3338C6.54942 11.867 8.27974 9.75856 10.4998 8.27516C12.7199 6.79176 15.33 6 18 6H29.25M29.25 6L26.25 3M29.25 6L26.25 9M13.5 13.5V24" stroke="white" stroke-width="1.5" stroke-linecap="round" stroke-linejoin="round"/>
<path d="M22.5 13.5H19.5C19.1022 13.5 18.7206 13.658 18.4393 13.9393C18.158 14.2206 18 14.6022 18 15V17.25C18 17.6478 18.158 18.0294 18.4393 18.3107C18.7206 18.592 19.1022 18.75 19.5 18.75H21C21.3978 18.75 21.7794 18.908 22.0607 19.1893C22.342 19.4706 22.5 19.8522 22.5 20.25V22.5C22.5 22.8978 22.342 23.2794 22.0607 23.5607C21.7794 23.842 21.3978 24 21 24H18" stroke="white" stroke-width="1.5" stroke-linecap="round" stroke-linejoin="round"/>
</svg>
