<svg width="36" height="36" viewBox="0 0 36 36" fill="none" xmlns="http://www.w3.org/2000/svg">
<path d="M4.5 19.5C4.5 22.17 5.29176 24.7801 6.77516 27.0002C8.25856 29.2203 10.367 30.9506 12.8338 31.9724C15.3006 32.9942 18.015 33.2615 20.6337 32.7406C23.2525 32.2197 25.6579 30.9339 27.5459 29.0459C29.4339 27.1579 30.7197 24.7525 31.2406 22.1337C31.7615 19.515 31.4942 16.8006 30.4724 14.3338C29.4506 11.867 27.7203 9.75856 25.5002 8.27516C23.2801 6.79176 20.67 6 18 6M13.5 13.5V24" stroke="white" stroke-width="1.5" stroke-linecap="round" stroke-linejoin="round"/>
<path d="M22.5 13.5H19.5C19.1022 13.5 18.7206 13.658 18.4393 13.9393C18.158 14.2206 18 14.6022 18 15V17.25C18 17.6478 18.158 18.0294 18.4393 18.3107C18.7206 18.592 19.1022 18.75 19.5 18.75H21C21.3978 18.75 21.7794 18.908 22.0607 19.1893C22.342 19.4706 22.5 19.8522 22.5 20.25V22.5C22.5 22.8978 22.342 23.2794 22.0607 23.5607C21.7794 23.842 21.3978 24 21 24H18M18 6H6.75M6.75 6L9.75 3M6.75 6L9.75 9" stroke="white" stroke-width="1.5" stroke-linecap="round" stroke-linejoin="round"/>
</svg>
