<svg width="25" height="24" viewBox="0 0 25 24" fill="none" xmlns="http://www.w3.org/2000/svg">
<path fill-rule="evenodd" clip-rule="evenodd" d="M10.005 4.65901C11.456 3.36901 13.75 4.39901 13.75 6.34001V17.66C13.75 19.601 11.456 20.631 10.005 19.341L6.809 16.501H4.75C4.15326 16.501 3.58097 16.264 3.15901 15.842C2.73705 15.42 2.5 14.8477 2.5 14.251V9.75101C2.49987 9.45545 2.55797 9.16276 2.67098 8.88966C2.784 8.61656 2.94971 8.36841 3.15866 8.15937C3.3676 7.95033 3.61568 7.78451 3.88873 7.67137C4.16178 7.55824 4.45444 7.50001 4.75 7.50001H6.809L10.005 4.65901ZM12.25 6.34001C12.2498 6.19552 12.208 6.05416 12.1294 5.93291C12.0508 5.81166 11.9389 5.71569 11.807 5.65654C11.6752 5.59739 11.5291 5.57757 11.3863 5.59947C11.2435 5.62138 11.11 5.68407 11.002 5.78001L7.592 8.81001C7.45486 8.93218 7.27766 8.99979 7.094 9.00001H4.75C4.55109 9.00001 4.36032 9.07903 4.21967 9.21968C4.07902 9.36033 4 9.5511 4 9.75001V14.25C4 14.664 4.336 15 4.75 15H7.094C7.27766 15.0002 7.45486 15.0678 7.592 15.19L11.002 18.22C11.11 18.3159 11.2435 18.3786 11.3863 18.4005C11.5291 18.4224 11.6752 18.4026 11.807 18.3435C11.9389 18.2843 12.0508 18.1884 12.1294 18.0671C12.208 17.9459 12.2498 17.8045 12.25 17.66V6.34001Z" fill="white"/>
<path d="M17.077 15.164C18.638 13.425 18.638 10.576 17.077 8.83701C17.0112 8.76373 16.9604 8.6782 16.9276 8.5853C16.8948 8.4924 16.8806 8.39394 16.8858 8.29556C16.8911 8.19718 16.9157 8.10079 16.9581 8.0119C17.0006 7.92301 17.0602 7.84337 17.1335 7.77751C17.2068 7.71165 17.2923 7.66087 17.3852 7.62807C17.4781 7.59527 17.5766 7.58108 17.675 7.58633C17.7733 7.59158 17.8697 7.61615 17.9586 7.65865C18.0475 7.70114 18.1272 7.76073 18.193 7.83401C20.266 10.144 20.266 13.857 18.193 16.167C18.06 16.315 17.8737 16.4041 17.675 16.4147C17.4763 16.4253 17.2815 16.3565 17.1335 16.2235C16.9855 16.0905 16.8964 15.9042 16.8858 15.7055C16.8752 15.5068 16.944 15.312 17.077 15.164Z" fill="white"/>
<path d="M14.985 10.653C15.673 11.418 15.673 12.583 14.985 13.348C14.852 13.496 14.7832 13.6908 14.7938 13.8895C14.8044 14.0881 14.8935 14.2745 15.0415 14.4075C15.1895 14.5405 15.3842 14.6093 15.5829 14.5987C15.7816 14.5881 15.968 14.499 16.101 14.351C16.6807 13.7055 17.0013 12.8686 17.0013 12.001C17.0013 11.1334 16.6807 10.2965 16.101 9.651C15.9672 9.50654 15.7819 9.4205 15.5852 9.41144C15.3885 9.40238 15.1962 9.47103 15.0497 9.60258C14.9032 9.73412 14.8143 9.91801 14.8022 10.1145C14.79 10.3111 14.8557 10.5045 14.985 10.653Z" fill="white"/>
</svg>
