<svg width="173" height="200" viewBox="0 0 173 200" fill="none" xmlns="http://www.w3.org/2000/svg">
<g clip-path="url(#clip0_73_2)">
<path d="M86.1297 91.2271H100.758C104.289 91.2271 104.36 96.8105 102.169 100.834C99.9788 104.857 90.7337 112.765 90.7337 112.765V117.575C90.7337 120.49 99.6106 125.572 109.428 125.628C118.327 125.68 121.018 117.414 121.557 112.945C122.086 108.565 121.6 105.291 121.6 105.291C121.6 105.291 125.474 110.048 124.626 115.981C123.778 121.914 117.844 132.26 102.807 131.134C90.7863 130.233 87.7634 126.578 87.7634 126.578H86.1266V91.2209H86.1297V91.2271Z" fill="#3D2618"/>
<path d="M158.463 53.8586C167.853 42.4103 162.133 26.1246 152.491 20.0864C148.881 17.8239 144.425 16.8336 139.444 16.9883C135.734 17.0997 131.733 17.8487 127.569 19.1857C122.405 20.8508 117.002 23.4104 111.603 26.7684C102.092 32.6891 99.3476 37.4398 98.6205 40.1572C98.3359 41.2126 99.3909 42.1039 100.393 41.6737C107.401 38.6654 117.33 40.0489 122.937 43.4007C130.799 48.1051 137.872 57.0681 138.404 75.1891C138.936 93.3101 121.606 104.656 121.606 104.656L121.69 105.405L122.726 114.928C122.726 114.928 125.27 119.06 113.407 128.707C113.231 129.125 113.048 129.537 112.863 129.942C104.221 148.725 86.1297 150.966 86.1297 150.966V162.619C92.1137 156.896 108.005 153.51 119.552 139.202C131.099 124.891 127.816 116.101 128.744 112.604C129.676 109.107 130.675 109.32 139.889 97.77C149.106 86.2196 145.895 63.7532 145.895 63.7532L152.677 60.6428C152.677 60.6428 163.386 76.4797 163.977 94.1303C164.824 119.419 154.252 128.392 154.252 128.392C153.587 117.086 150.762 112.084 148.546 109.884C147.73 109.067 146.365 109.887 146.675 111.001C148.098 116.064 150.202 127.271 145.613 139.063C139.397 155.03 116.093 167.456 106.628 171.415C98.7907 174.695 85.1582 184.417 85.1582 184.417V199.387C85.1582 199.387 91.7671 191.643 105.13 182.303C122.844 169.932 133.33 169.329 144.202 157.707C155.573 145.553 168.936 131.155 171.882 103.737C175.276 72.2334 158.466 53.8648 158.466 53.8648L158.457 53.8555L158.463 53.8586ZM149.206 52.1595C141.798 58.8725 141.647 55.697 140.87 52.7228C140.093 49.7578 136.637 42.9736 129.363 38.0279C125.514 35.4157 126.232 34.0044 130.988 29.4858C134.945 25.7316 146.173 22.5561 152.037 31.1106C154.871 35.2424 157.142 44.9761 149.206 52.1564V52.1595Z" fill="#3D2618"/>
<path d="M86.1298 27.929C86.1298 27.929 87.1322 27.8547 87.6613 25.6666C88.1904 23.4784 91.7919 6.62943 107.893 10.7612C123.995 14.893 127.918 19.3435 129.611 21.1448C131.306 22.9461 140.777 19.0186 140.777 19.0186C140.777 19.0186 138.618 12.1013 117.429 5.32026C96.2412 -1.46081 86.1298 0.173332 86.1298 0.173332V27.929Z" fill="#3D2618"/>
<path d="M86.1916 91.2271H71.5628C68.0325 91.2271 67.9613 96.8105 70.1519 100.834C72.3425 104.857 81.5876 112.765 81.5876 112.765V117.575C81.5876 120.49 72.7107 125.572 62.8932 125.628C53.9947 125.68 51.3028 117.414 50.7645 112.945C50.2354 108.565 50.7212 105.291 50.7212 105.291C50.7212 105.291 46.8474 110.048 47.6952 115.981C48.5429 121.914 54.4774 132.26 69.5146 131.134C81.535 130.233 84.5579 126.578 84.5579 126.578H86.1947V91.2209H86.1916V91.2271Z" fill="#3D2618"/>
<path d="M65.6963 171.409C56.2347 167.45 32.927 155.021 26.711 139.057C22.1256 127.268 24.2265 116.058 25.6497 110.995C25.9561 109.887 24.5885 109.064 23.7778 109.878C21.5656 112.078 18.7438 117.08 18.0724 128.385C18.0724 128.385 7.49373 119.413 8.34769 94.1242C8.93866 76.4736 19.6472 60.6367 19.6472 60.6367L26.4295 63.7471C26.4295 63.7471 23.2147 86.2135 32.4351 97.7639C41.6492 109.314 42.6455 109.101 43.5799 112.598C44.5112 116.095 41.2253 124.885 52.7724 139.196C64.3195 153.498 80.2106 156.887 86.1946 162.613V150.96C86.1946 150.96 68.1035 148.719 59.4618 129.936C59.2761 129.534 59.0967 129.119 58.9172 128.701C47.0545 119.054 49.5979 114.922 49.5979 114.922L50.6313 105.399L50.7148 104.65C50.7148 104.65 33.388 93.304 33.9202 75.183C34.4493 57.062 41.5223 48.099 49.3875 43.3946C54.9939 40.0459 64.9259 38.6593 71.9309 41.6676C72.9334 42.0978 73.9885 41.2065 73.7038 40.1511C72.9767 37.4368 70.2292 32.683 60.7211 26.7623C55.3188 23.3981 49.9197 20.8385 44.7556 19.1796C40.591 17.8426 36.5904 17.0936 32.8806 16.9822C27.8929 16.8274 23.4437 17.8178 19.8329 20.0803C10.1887 26.1185 4.47082 42.4042 13.8613 53.8525C13.8613 53.8525 -2.94568 72.218 0.445427 103.725C3.39098 131.143 16.7605 145.541 28.125 157.695C38.9976 169.316 49.4896 169.92 67.197 182.29C80.5572 191.628 85.3035 199.375 85.3035 199.375L87.163 184.404C87.163 184.404 73.5305 174.683 65.6932 171.402V171.412L65.6963 171.409ZM20.2846 31.1107C26.1479 22.5562 37.3732 25.7317 41.3336 29.4859C46.0892 34.0045 46.807 35.4127 42.958 38.028C35.6838 42.9768 32.2277 49.761 31.4511 52.7229C30.6714 55.6971 30.5291 58.8694 23.1126 52.1596C15.1856 44.9792 17.4566 35.2456 20.2908 31.1138H20.2877L20.2846 31.1107Z" fill="#3D2618"/>
<path d="M86.1916 27.929C86.1916 27.929 85.1891 27.8547 84.66 25.6666C84.1309 23.4784 80.5294 6.62943 64.4279 10.7612C48.3263 14.893 44.403 19.3435 42.7106 21.1448C41.0181 22.9461 31.5441 19.0186 31.5441 19.0186C31.5441 19.0186 33.7037 12.1013 54.8919 5.32026C76.0833 -1.46081 86.1916 0.173332 86.1916 0.173332V27.929Z" fill="#3D2618"/>
<path d="M46.3616 69.6801C46.0212 68.6185 47.3022 67.7952 48.1221 68.5473C50.8944 71.0945 55.551 74.6351 59.9848 74.6351C64.4186 74.6351 68.1748 72.0168 70.6655 69.6522C71.6371 68.733 73.1841 69.7234 72.754 70.9923C71.4885 74.7094 68.2645 79.3518 60.0621 79.3518C51.0429 79.3518 47.6363 73.6323 46.3585 69.6832L46.3616 69.6801Z" fill="#3D2618"/>
<path d="M125.375 69.6801C125.715 68.6185 124.434 67.7952 123.614 68.5473C120.842 71.0945 116.186 74.6351 111.752 74.6351C107.318 74.6351 103.562 72.0168 101.071 69.6522C100.1 68.733 98.5525 69.7234 98.9825 70.9923C100.248 74.7094 103.472 79.3518 111.674 79.3518C120.694 79.3518 124.1 73.6323 125.378 69.6832L125.375 69.6801Z" fill="#3D2618"/>
<path d="M128.475 35.0288L130.124 32.6674C130.301 32.4136 130.635 32.33 130.91 32.4662C133.389 33.7042 144.521 40.0365 143.42 53.4284C139.369 42.0823 130.913 37.0158 128.664 35.8304C128.367 35.6757 128.277 35.2981 128.472 35.0227L128.475 35.0288Z" fill="#3D2618"/>
<path d="M43.3233 35.0288L41.6741 32.6674C41.4978 32.4136 41.1636 32.33 40.8882 32.4662C38.4099 33.7042 27.2774 40.0365 28.3789 53.4284C32.429 42.0823 40.8851 37.0158 43.1345 35.8304C43.4316 35.6757 43.5213 35.2981 43.3264 35.0227L43.3233 35.0288Z" fill="#3D2618"/>
</g>
<defs>
<clipPath id="clip0_73_2">
<rect width="172.34" height="199.39" fill="white"/>
</clipPath>
</defs>
</svg>
